<svg width="147" height="33" viewBox="0 0 147 33" fill="none" xmlns="http://www.w3.org/2000/svg">
<path d="M26.1273 10.0468L18.9368 9.00182L15.7225 2.48531C15.6347 2.3069 15.4902 2.16246 15.3118 2.07467C14.8644 1.85377 14.3206 2.03785 14.0969 2.48531L10.8825 9.00182L3.69199 10.0468C3.49375 10.0752 3.3125 10.1686 3.17373 10.3102C3.00597 10.4826 2.91352 10.7146 2.91671 10.9552C2.91989 11.1957 3.01845 11.4252 3.19072 11.5931L8.39316 16.6653L7.16406 23.8275C7.13524 23.9941 7.15368 24.1655 7.21728 24.3221C7.28089 24.4788 7.38712 24.6145 7.52392 24.7139C7.66073 24.8132 7.82264 24.8723 7.9913 24.8843C8.15995 24.8963 8.3286 24.8608 8.47813 24.7819L14.9097 21.4005L21.3412 24.7819C21.5168 24.8754 21.7207 24.9065 21.9161 24.8725C22.4089 24.7876 22.7402 24.3203 22.6553 23.8275L21.4262 16.6653L26.6286 11.5931C26.7702 11.4544 26.8637 11.2731 26.892 11.0749C26.9685 10.5793 26.623 10.1205 26.1273 10.0468Z" fill="#FFE600"/>
<path d="M55.1273 10.0468L47.9368 9.00182L44.7225 2.48531C44.6347 2.3069 44.4902 2.16246 44.3118 2.07467C43.8644 1.85377 43.3206 2.03785 43.0969 2.48531L39.8825 9.00182L32.692 10.0468C32.4937 10.0752 32.3125 10.1686 32.1737 10.3102C32.006 10.4826 31.9135 10.7146 31.9167 10.9552C31.9199 11.1957 32.0184 11.4252 32.1907 11.5931L37.3932 16.6653L36.1641 23.8275C36.1352 23.9941 36.1537 24.1655 36.2173 24.3221C36.2809 24.4788 36.3871 24.6145 36.5239 24.7139C36.6607 24.8132 36.8226 24.8723 36.9913 24.8843C37.16 24.8963 37.3286 24.8608 37.4781 24.7819L43.9097 21.4005L50.3412 24.7819C50.5168 24.8754 50.7207 24.9065 50.9161 24.8725C51.4089 24.7876 51.7402 24.3203 51.6553 23.8275L50.4262 16.6653L55.6286 11.5931C55.7702 11.4544 55.8637 11.2731 55.892 11.0749C55.9685 10.5793 55.623 10.1205 55.1273 10.0468Z" fill="#FFE600"/>
<path d="M84.1273 10.0468L76.9368 9.00182L73.7225 2.48531C73.6347 2.3069 73.4902 2.16246 73.3118 2.07467C72.8644 1.85377 72.3206 2.03785 72.0969 2.48531L68.8825 9.00182L61.692 10.0468C61.4937 10.0752 61.3125 10.1686 61.1737 10.3102C61.006 10.4826 60.9135 10.7146 60.9167 10.9552C60.9199 11.1957 61.0184 11.4252 61.1907 11.5931L66.3932 16.6653L65.1641 23.8275C65.1352 23.9941 65.1537 24.1655 65.2173 24.3221C65.2809 24.4788 65.3871 24.6145 65.5239 24.7139C65.6607 24.8132 65.8226 24.8723 65.9913 24.8843C66.16 24.8963 66.3286 24.8608 66.4781 24.7819L72.9097 21.4005L79.3412 24.7819C79.5168 24.8754 79.7207 24.9065 79.9161 24.8725C80.4089 24.7876 80.7402 24.3203 80.6553 23.8275L79.4262 16.6653L84.6286 11.5931C84.7702 11.4544 84.8637 11.2731 84.892 11.0749C84.9685 10.5793 84.623 10.1205 84.1273 10.0468Z" fill="#FFE600"/>
<path d="M113.127 10.0468L105.937 9.00182L102.722 2.48531C102.635 2.3069 102.49 2.16246 102.312 2.07467C101.864 1.85377 101.321 2.03785 101.097 2.48531L97.8825 9.00182L90.692 10.0468C90.4937 10.0752 90.3125 10.1686 90.1737 10.3102C90.006 10.4826 89.9135 10.7146 89.9167 10.9552C89.9199 11.1957 90.0184 11.4252 90.1907 11.5931L95.3932 16.6653L94.1641 23.8275C94.1352 23.9941 94.1537 24.1655 94.2173 24.3221C94.2809 24.4788 94.3871 24.6145 94.5239 24.7139C94.6607 24.8132 94.8226 24.8723 94.9913 24.8843C95.16 24.8963 95.3286 24.8608 95.4781 24.7819L101.91 21.4005L108.341 24.7819C108.517 24.8754 108.721 24.9065 108.916 24.8725C109.409 24.7876 109.74 24.3203 109.655 23.8275L108.426 16.6653L113.629 11.5931C113.77 11.4544 113.864 11.2731 113.892 11.0749C113.968 10.5793 113.623 10.1205 113.127 10.0468Z" fill="#FFE600"/>
<g filter="url(#filter0_d_304_268)">
<path d="M134.488 9.22301L134.605 9.45881L134.865 9.49662L142.054 10.5414C142.054 10.5414 142.054 10.5415 142.054 10.5415C142.281 10.5755 142.431 10.783 142.398 10.9986L142.398 10.9986L142.397 11.0042C142.385 11.0913 142.343 11.1724 142.279 11.2357C142.279 11.2358 142.279 11.2359 142.279 11.236L137.077 16.3073L136.889 16.4908L136.933 16.7499L138.162 23.9121L138.163 23.9125C138.2 24.1319 138.053 24.3415 137.831 24.3798L137.83 24.3799C137.742 24.3953 137.651 24.3806 137.576 24.3405L137.574 24.3393L131.142 20.9579L130.91 20.8356L130.677 20.9579L124.245 24.3393L124.245 24.3397C124.178 24.3751 124.102 24.3909 124.027 24.3856C123.951 24.3802 123.879 24.3538 123.818 24.3093C123.757 24.2648 123.709 24.2041 123.681 24.134C123.652 24.0639 123.644 23.9873 123.657 23.9127L123.657 23.9121L124.886 16.7499L124.93 16.4908L124.742 16.3073L119.54 11.2351L119.54 11.2351C119.462 11.1597 119.418 11.0566 119.417 10.9486C119.415 10.8408 119.457 10.7369 119.531 10.6595C119.595 10.5953 119.676 10.5542 119.763 10.5418L119.764 10.5416L126.954 9.49662L127.215 9.45881L127.331 9.22301L130.544 2.70892C130.544 2.70857 130.544 2.70823 130.545 2.70788C130.646 2.50577 130.892 2.42483 131.09 2.52301L131.091 2.5233C131.17 2.56236 131.235 2.62668 131.274 2.70607L131.274 2.7065L134.488 9.22301Z" fill="url(#paint0_linear_304_268)" stroke="#FFE600"/>
</g>
<defs>
<filter id="filter0_d_304_268" x="112.41" y="0.046875" width="37" height="37" filterUnits="userSpaceOnUse" color-interpolation-filters="sRGB">
<feFlood flood-opacity="0" result="BackgroundImageFix"/>
<feColorMatrix in="SourceAlpha" type="matrix" values="0 0 0 0 0 0 0 0 0 0 0 0 0 0 0 0 0 0 127 0" result="hardAlpha"/>
<feOffset dy="4"/>
<feGaussianBlur stdDeviation="2"/>
<feComposite in2="hardAlpha" operator="out"/>
<feColorMatrix type="matrix" values="0 0 0 0 0 0 0 0 0 0 0 0 0 0 0 0 0 0 0.25 0"/>
<feBlend mode="normal" in2="BackgroundImageFix" result="effect1_dropShadow_304_268"/>
<feBlend mode="normal" in="SourceGraphic" in2="effect1_dropShadow_304_268" result="shape"/>
</filter>
<linearGradient id="paint0_linear_304_268" x1="122.417" y1="13.4338" x2="142.903" y2="17.35" gradientUnits="userSpaceOnUse">
<stop offset="0.258287" stop-color="#FFE600"/>
<stop offset="0.719352" stop-color="white" stop-opacity="0"/>
</linearGradient>
</defs>
</svg>
